<svg viewBox="0 0 21 18" fill="currentColor" xmlns="http://www.w3.org/2000/svg">
<path d="M14.8675 0C13.1612 0 11.5534 0.782813 10.48 2.05781C9.40654 0.782813 7.79873 0 6.09248 0C3.06904 0 0.72998 2.35313 0.72998 5.39531C0.72998 9.12188 4.04404 12.1125 9.06436 16.725L10.48 18L11.8956 16.725C16.9159 12.1125 20.23 9.12188 20.23 5.39531C20.23 2.35313 17.8909 0 14.8675 0ZM11.08 15.4359L10.8831 15.6188L10.48 15.9844L10.0769 15.6188L9.87998 15.4359C7.51748 13.2656 5.47373 11.3906 4.12842 9.71719C2.81592 8.09062 2.23467 6.75938 2.23467 5.39531C2.23467 4.32188 2.62842 3.3375 3.34561 2.61563C4.05811 1.89375 5.03311 1.5 6.09248 1.5C7.31592 1.5 8.52998 2.07188 9.33154 3.02344L10.48 4.3875L11.6284 3.02344C12.43 2.06719 13.644 1.5 14.8675 1.5C15.9269 1.5 16.9019 1.89375 17.619 2.61563C18.3362 3.3375 18.73 4.32656 18.73 5.39531C18.73 6.75469 18.144 8.09062 16.8362 9.71719C15.4862 11.3906 13.4472 13.2656 11.08 15.4359Z"/>
</svg>
