<svg viewBox="0 0 20 19" fill="currentColor" xmlns="http://www.w3.org/2000/svg">
<path d="M0.47998 0.875C0.47998 0.70924 0.545829 0.550268 0.663039 0.433058C0.780249 0.315848 0.93922 0.25 1.10498 0.25H2.97998C3.11939 0.250039 3.25479 0.296688 3.36464 0.382531C3.4745 0.468374 3.55249 0.58848 3.58623 0.72375L4.09248 2.75H18.605C18.6968 2.75008 18.7874 2.77038 18.8704 2.80944C18.9535 2.8485 19.0269 2.90537 19.0855 2.976C19.1441 3.04664 19.1864 3.12931 19.2094 3.21815C19.2324 3.30698 19.2356 3.3998 19.2187 3.49L17.3437 13.49C17.3169 13.6332 17.2409 13.7626 17.1288 13.8557C17.0168 13.9488 16.8757 13.9999 16.73 14H5.47998C5.33427 13.9999 5.19319 13.9488 5.08112 13.8557C4.96905 13.7626 4.89304 13.6332 4.86623 13.49L2.99248 3.50875L2.49248 1.5H1.10498C0.93922 1.5 0.780249 1.43415 0.663039 1.31694C0.545829 1.19973 0.47998 1.04076 0.47998 0.875ZM4.35748 4L5.99873 12.75H16.2112L17.8525 4H4.35748ZM6.72998 14C6.06694 14 5.43105 14.2634 4.96221 14.7322C4.49337 15.2011 4.22998 15.837 4.22998 16.5C4.22998 17.163 4.49337 17.7989 4.96221 18.2678C5.43105 18.7366 6.06694 19 6.72998 19C7.39302 19 8.02891 18.7366 8.49775 18.2678C8.96659 17.7989 9.22998 17.163 9.22998 16.5C9.22998 15.837 8.96659 15.2011 8.49775 14.7322C8.02891 14.2634 7.39302 14 6.72998 14ZM15.48 14C14.8169 14 14.1811 14.2634 13.7122 14.7322C13.2434 15.2011 12.98 15.837 12.98 16.5C12.98 17.163 13.2434 17.7989 13.7122 18.2678C14.1811 18.7366 14.8169 19 15.48 19C16.143 19 16.7789 18.7366 17.2477 18.2678C17.7166 17.7989 17.98 17.163 17.98 16.5C17.98 15.837 17.7166 15.2011 17.2477 14.7322C16.7789 14.2634 16.143 14 15.48 14ZM6.72998 15.25C7.0615 15.25 7.37944 15.3817 7.61386 15.6161C7.84828 15.8505 7.97998 16.1685 7.97998 16.5C7.97998 16.8315 7.84828 17.1495 7.61386 17.3839C7.37944 17.6183 7.0615 17.75 6.72998 17.75C6.39846 17.75 6.08052 17.6183 5.8461 17.3839C5.61168 17.1495 5.47998 16.8315 5.47998 16.5C5.47998 16.1685 5.61168 15.8505 5.8461 15.6161C6.08052 15.3817 6.39846 15.25 6.72998 15.25ZM15.48 15.25C15.8115 15.25 16.1294 15.3817 16.3639 15.6161C16.5983 15.8505 16.73 16.1685 16.73 16.5C16.73 16.8315 16.5983 17.1495 16.3639 17.3839C16.1294 17.6183 15.8115 17.75 15.48 17.75C15.1485 17.75 14.8305 17.6183 14.5961 17.3839C14.3617 17.1495 14.23 16.8315 14.23 16.5C14.23 16.1685 14.3617 15.8505 14.5961 15.6161C14.8305 15.3817 15.1485 15.25 15.48 15.25Z"/>
</svg>
