<svg viewBox="0 0 20 14" fill="currentColor" xmlns="http://www.w3.org/2000/svg">
<path d="M19.0852 2.41959C18.8671 1.59841 18.2246 0.951673 17.4087 0.732193C15.9299 0.333374 9.99999 0.333374 9.99999 0.333374C9.99999 0.333374 4.07013 0.333374 2.59127 0.732193C1.7754 0.951707 1.13283 1.59841 0.914744 2.41959C0.518494 3.90803 0.518494 7.01351 0.518494 7.01351C0.518494 7.01351 0.518494 10.119 0.914744 11.6074C1.13283 12.4286 1.7754 13.0484 2.59127 13.2679C4.07013 13.6667 9.99999 13.6667 9.99999 13.6667C9.99999 13.6667 15.9298 13.6667 17.4087 13.2679C18.2246 13.0484 18.8671 12.4286 19.0852 11.6074C19.4815 10.119 19.4815 7.01351 19.4815 7.01351C19.4815 7.01351 19.4815 3.90803 19.0852 2.41959ZM8.06058 9.83306V4.19396L13.0168 7.01358L8.06058 9.83306Z"/>
</svg>
